<?xml version="1.0" encoding="iso-8859-1"?>
<!-- Generator: Adobe Illustrator 19.0.0, SVG Export Plug-In . SVG Version: 6.00 Build 0)  -->
<svg version="1.1" id="Capa_1" xmlns="http://www.w3.org/2000/svg" xmlns:xlink="http://www.w3.org/1999/xlink" x="0px" y="0px"
	 viewBox="0 0 512 512" style="enable-background:new 0 0 512 512;" xml:space="preserve">
<g>
	<g>
		<path d="M511.735,472.74l-18.931-80.585c-3.201-13.626-15.213-23.141-29.209-23.141h-35.682l-17.118-72.869
			c-3.201-13.627-15.213-23.143-29.21-23.143h-35.587l-17.118-72.869c-3.201-13.627-15.212-23.143-29.209-23.143h-87.152
			c-13.997,0-26.007,9.516-29.209,23.143l-17.118,72.869h-35.841c-13.997,0-26.008,9.516-29.21,23.143l-17.118,72.869H48.405
			c-13.996,0-26.007,9.516-29.21,23.143L0.265,472.74c-0.698,2.973,0.001,6.104,1.897,8.498c1.896,2.394,4.784,3.79,7.839,3.79
			h491.998c3.055,0,5.942-1.396,7.839-3.79C511.735,478.844,512.433,475.713,511.735,472.74z M381.586,293.005
			c4.665-0.001,8.669,3.171,9.736,7.714l16.044,68.295h-30.921H299.64h-30.985l16.045-68.295c1.066-4.543,5.07-7.714,9.735-7.714
			H381.586z M202.784,204.707c1.066-4.543,5.07-7.714,9.735-7.714h87.152c4.666,0,8.669,3.172,9.735,7.714l16.044,68.295h-31.016
			h-76.933h-30.762L202.784,204.707z M266.165,293.004c-0.359,1.022-0.686,2.063-0.939,3.139l-9.258,39.409l-9.258-39.408
			c-0.253-1.077-0.58-2.117-0.939-3.14H266.165z M120.615,300.719c1.066-4.543,5.071-7.714,9.736-7.714h87.151
			c4.666,0,8.669,3.172,9.735,7.714l16.045,68.295h-30.794h-76.933h-30.984L120.615,300.719z M22.624,465.025l4.699-20.003h49.123
			c5.523,0,10.001-4.478,10.001-10.001s-4.479-10.001-10.001-10.001H32.022l6.646-28.289c1.067-4.543,5.072-7.715,9.737-7.715
			h87.151c4.666,0,8.669,3.172,9.735,7.714l16.045,68.295H22.624z M183.279,392.156l-9.258,39.408l-9.258-39.408
			c-0.253-1.077-0.58-2.117-0.939-3.14h20.395C183.859,390.039,183.532,391.079,183.279,392.156z M186.708,465.025l16.045-68.295
			c1.066-4.543,5.07-7.714,9.735-7.714h43.416h0.127h43.608c4.666,0,8.669,3.172,9.735,7.714l16.044,68.295H186.708z
			 M347.236,392.156l-9.195,39.137l-9.193-39.137c-0.253-1.077-0.58-2.117-0.939-3.14h20.266
			C347.816,390.039,347.49,391.079,347.236,392.156z M350.664,465.025l16.045-68.295c1.066-4.543,5.07-7.714,9.735-7.714h87.151
			c4.666,0,8.67,3.172,9.736,7.714l16.044,68.295H350.664z"/>
	</g>
</g>
<g>
	<g>
		<path d="M255.978,62.976c-5.523,0-10.001,4.478-10.001,10.001v38.77c0,5.524,4.479,10.001,10.001,10.001
			c5.523,0,10.001-4.478,10.001-10.001v-38.77C265.979,67.454,261.502,62.976,255.978,62.976z"/>
	</g>
</g>
<g>
	<g>
		<path d="M263.049,29.902c-1.86-1.86-4.441-2.93-7.071-2.93c-2.63,0-5.211,1.07-7.071,2.93c-1.859,1.86-2.93,4.441-2.93,7.071
			s1.07,5.211,2.93,7.071s4.441,2.93,7.071,2.93c2.63,0,5.211-1.07,7.071-2.93c1.859-1.86,2.93-4.441,2.93-7.071
			S264.909,31.762,263.049,29.902z"/>
	</g>
</g>
<g>
	<g>
		<path d="M359.265,81.476c-3.906-3.905-10.237-3.905-14.145,0l-30.486,30.486c-3.905,3.905-3.905,10.238,0,14.145
			c1.954,1.953,4.514,2.929,7.073,2.929c2.56,0,5.119-0.976,7.072-2.929l30.486-30.486C363.17,91.715,363.17,85.382,359.265,81.476z
			"/>
	</g>
</g>
<g>
	<g>
		<path d="M197.321,111.904l-30.487-30.486c-3.906-3.906-10.237-3.906-14.145,0c-3.905,3.905-3.905,10.238,0,14.144l30.488,30.486
			c1.953,1.953,4.513,2.929,7.072,2.929s5.119-0.977,7.072-2.929C201.227,122.142,201.227,115.809,197.321,111.904z"/>
	</g>
</g>
<g>
	<g>
		<path d="M125.892,427.95c-1.86-1.86-4.431-2.93-7.061-2.93c-2.64,0-5.221,1.07-7.081,2.93s-2.92,4.441-2.92,7.071
			c0,2.63,1.06,5.211,2.92,7.071c1.87,1.86,4.441,2.93,7.081,2.93c2.63,0,5.201-1.07,7.061-2.93c1.87-1.86,2.94-4.44,2.94-7.071
			C128.833,432.391,127.762,429.811,125.892,427.95z"/>
	</g>
</g>
<g>
</g>
<g>
</g>
<g>
</g>
<g>
</g>
<g>
</g>
<g>
</g>
<g>
</g>
<g>
</g>
<g>
</g>
<g>
</g>
<g>
</g>
<g>
</g>
<g>
</g>
<g>
</g>
<g>
</g>
</svg>
