<?xml version="1.0" encoding="iso-8859-1"?>
<!-- Generator: Adobe Illustrator 19.0.0, SVG Export Plug-In . SVG Version: 6.00 Build 0)  -->
<svg version="1.1" id="Capa_1" xmlns="http://www.w3.org/2000/svg" xmlns:xlink="http://www.w3.org/1999/xlink" x="0px" y="0px"
	 viewBox="0 0 495.998 495.998" style="enable-background:new 0 0 495.998 495.998;" xml:space="preserve">
<g>
	<g>
		<g>
			<path d="M215.999,304c0-13.255-10.745-24-24-24s-24,10.745-24,24s10.745,24,24,24S215.999,317.255,215.999,304z M191.999,312
				c-4.418,0-8-3.582-8-8s3.582-8,8-8s8,3.582,8,8S196.417,312,191.999,312z"/>
			<path d="M151.999,280c13.255,0,24-10.745,24-24s-10.745-24-24-24s-24,10.745-24,24S138.744,280,151.999,280z M151.999,248
				c4.418,0,8,3.582,8,8s-3.582,8-8,8s-8-3.582-8-8S147.581,248,151.999,248z"/>
			<path d="M111.999,184c-13.255,0-24,10.745-24,24s10.745,24,24,24s24-10.745,24-24S125.254,184,111.999,184z M111.999,216
				c-4.418,0-8-3.582-8-8s3.582-8,8-8s8,3.582,8,8S116.417,216,111.999,216z"/>
			<path d="M111.999,152c0-13.255-10.745-24-24-24s-24,10.745-24,24s10.745,24,24,24S111.999,165.255,111.999,152z M79.999,152
				c0-4.418,3.582-8,8-8s8,3.582,8,8s-3.582,8-8,8S79.999,156.418,79.999,152z"/>
			<path d="M111.999,120c13.255,0,24-10.745,24-24s-10.745-24-24-24s-24,10.745-24,24S98.744,120,111.999,120z M111.999,88
				c4.418,0,8,3.582,8,8s-3.582,8-8,8s-8-3.582-8-8S107.581,88,111.999,88z"/>
			<path d="M151.999,72c13.255,0,24-10.745,24-24s-10.745-24-24-24s-24,10.745-24,24S138.744,72,151.999,72z M151.999,40
				c4.418,0,8,3.582,8,8s-3.582,8-8,8s-8-3.582-8-8S147.581,40,151.999,40z"/>
			<path d="M207.999,48c13.255,0,24-10.745,24-24s-10.745-24-24-24s-24,10.745-24,24S194.744,48,207.999,48z M207.999,16
				c4.418,0,8,3.582,8,8s-3.582,8-8,8s-8-3.582-8-8S203.581,16,207.999,16z"/>
			<path d="M303.999,280c-13.255,0-24,10.745-24,24s10.745,24,24,24s24-10.745,24-24S317.254,280,303.999,280z M303.999,312
				c-4.418,0-8-3.582-8-8s3.582-8,8-8s8,3.582,8,8S308.417,312,303.999,312z"/>
			<path d="M343.999,280c13.255,0,24-10.745,24-24s-10.745-24-24-24s-24,10.745-24,24S330.744,280,343.999,280z M343.999,248
				c4.418,0,8,3.582,8,8s-3.582,8-8,8s-8-3.582-8-8S339.581,248,343.999,248z"/>
			<path d="M383.999,184c-13.255,0-24,10.745-24,24s10.745,24,24,24s24-10.745,24-24S397.254,184,383.999,184z M383.999,216
				c-4.418,0-8-3.582-8-8s3.582-8,8-8s8,3.582,8,8S388.417,216,383.999,216z"/>
			<path d="M407.999,128c-13.255,0-24,10.745-24,24s10.745,24,24,24s24-10.745,24-24S421.254,128,407.999,128z M407.999,160
				c-4.418,0-8-3.582-8-8s3.582-8,8-8s8,3.582,8,8S412.417,160,407.999,160z"/>
			<path d="M359.999,96c0,13.255,10.745,24,24,24s24-10.745,24-24s-10.745-24-24-24S359.999,82.745,359.999,96z M383.999,88
				c4.418,0,8,3.582,8,8s-3.582,8-8,8s-8-3.582-8-8S379.581,88,383.999,88z"/>
			<path d="M343.999,72c13.255,0,24-10.745,24-24s-10.745-24-24-24s-24,10.745-24,24S330.744,72,343.999,72z M343.999,40
				c4.418,0,8,3.582,8,8s-3.582,8-8,8s-8-3.582-8-8S339.581,40,343.999,40z"/>
			<path d="M287.999,48c13.255,0,24-10.745,24-24s-10.745-24-24-24s-24,10.745-24,24S274.744,48,287.999,48z M287.999,16
				c4.418,0,8,3.582,8,8s-3.582,8-8,8s-8-3.582-8-8S283.581,16,287.999,16z"/>
			<path d="M255.999,388.688v-5.824c17.112-4.418,27.402-21.872,22.984-38.984c-4.418-17.112-21.872-27.402-38.984-22.984
				s-27.402,21.872-22.984,38.984c2.91,11.272,11.712,20.074,22.984,22.984v5.824l-45.656,45.656c-3.123,3.124-3.123,8.188,0,11.312
				l48,48c3.124,3.123,8.188,3.123,11.312,0l48-48c3.123-3.124,3.123-8.188,0-11.312L255.999,388.688z M231.999,352
				c0-8.837,7.163-16,16-16c8.837,0,16,7.163,16,16s-7.163,16-16,16C239.163,368,231.999,360.837,231.999,352z M247.999,476.688
				L211.311,440l36.688-36.688L284.687,440L247.999,476.688z"/>
			<path d="M375.999,328h-16c0,17.673-14.327,32-32,32v16c17.673,0,32,14.327,32,32h16c0-17.673,14.327-32,32-32v-16
				C390.326,360,375.999,345.673,375.999,328z M367.999,381.52c-3.562-5.362-8.158-9.958-13.52-13.52
				c5.362-3.562,9.958-8.158,13.52-13.52c3.562,5.362,8.158,9.958,13.52,13.52C376.157,371.562,371.561,376.158,367.999,381.52z"/>
			<path d="M135.999,328h-16c0,17.673-14.327,32-32,32v16c17.673,0,32,14.327,32,32h16c0-17.673,14.327-32,32-32v-16
				C150.326,360,135.999,345.673,135.999,328z M127.999,381.52c-3.562-5.362-8.158-9.958-13.52-13.52
				c5.362-3.562,9.958-8.158,13.52-13.52c3.562,5.362,8.158,9.958,13.52,13.52C136.157,371.562,131.561,376.158,127.999,381.52z"/>
		</g>
	</g>
</g>
<g>
</g>
<g>
</g>
<g>
</g>
<g>
</g>
<g>
</g>
<g>
</g>
<g>
</g>
<g>
</g>
<g>
</g>
<g>
</g>
<g>
</g>
<g>
</g>
<g>
</g>
<g>
</g>
<g>
</g>
</svg>
