<?xml version="1.0" encoding="iso-8859-1"?>
<!-- Generator: Adobe Illustrator 19.0.0, SVG Export Plug-In . SVG Version: 6.00 Build 0)  -->
<svg version="1.1" id="Capa_1" xmlns="http://www.w3.org/2000/svg" xmlns:xlink="http://www.w3.org/1999/xlink" x="0px" y="0px"
	 viewBox="0 0 340.518 340.518" style="enable-background:new 0 0 340.518 340.518;" xml:space="preserve">
<g>
	<g>
		<g>
			<path d="M305.255,2.08c-2.761,0-5,2.239-5,5v87.355h-10.352V7.08c0-2.761-2.239-5-5-5s-5,2.239-5,5v87.355h-10.357V7.08
				c0-2.761-2.239-5-5-5s-5,2.239-5,5v87.355h-10.351V7.08c0-2.761-2.239-5-5-5c-2.761,0-5,2.239-5,5v92.356
				c0,13.531,8.738,25.194,21.225,30.339v205.743c0,2.761,2.239,5,5,5h18.611c2.761,0,5-2.239,4.999-5.001V129.775
				c12.487-5.144,21.225-16.808,21.225-30.339V7.08C310.255,4.32,308.016,2.08,305.255,2.08z M279.031,330.518h-8.611V132.581h8.611
				V330.518z M274.726,122.581c-12.185,0-22.403-7.778-24.931-18.145h49.862C297.129,114.804,286.911,122.581,274.726,122.581z"/>
			<path d="M193.293,0.338c-1.921-0.746-4.108-0.234-5.5,1.29c-1.462,1.601-35.875,39.832-42.017,94.038
				c-6.019,53.056-0.082,143.489-0.021,144.396c0.176,2.626,2.357,4.667,4.989,4.667h16.533v90.789c0,2.761,2.239,5,5,5h19.208
				c2.761,0,5-2.239,5-4.999V5C196.485,2.937,195.217,1.084,193.293,0.338z M186.485,330.518h-9.208v-85.789h9.208V330.518z
				 M186.485,234.729h-31.038c-1.117-19.137-4.874-92.627,0.266-137.937c3.894-34.372,20.377-62.48,30.772-77.222V234.729z"/>
			<path d="M75.26,2.08c-12.412,0-23.936,7.061-32.447,19.882c-8.092,12.19-12.549,28.303-12.549,45.37
				c0,17.065,4.457,33.177,12.549,45.367c5.114,7.703,11.315,13.326,18.142,16.589v206.23c0,2.761,2.239,5,5,5h18.611
				c2.761,0,5-2.239,5-5.002v-206.23c6.828-3.262,13.028-8.885,18.141-16.588c8.092-12.19,12.549-28.302,12.549-45.367
				c0-17.067-4.456-33.18-12.549-45.37C99.196,9.142,87.672,2.08,75.26,2.08z M79.566,330.518h-8.611V132.581h8.611V330.518z
				 M75.26,122.58c-19.297,0-34.996-24.785-34.996-55.249c0-30.465,15.7-55.251,34.996-55.251c19.297,0,34.996,24.786,34.996,55.251
				C110.256,97.796,94.557,122.58,75.26,122.58z"/>
		</g>
	</g>
</g>
<g>
</g>
<g>
</g>
<g>
</g>
<g>
</g>
<g>
</g>
<g>
</g>
<g>
</g>
<g>
</g>
<g>
</g>
<g>
</g>
<g>
</g>
<g>
</g>
<g>
</g>
<g>
</g>
<g>
</g>
</svg>
