<svg height="512pt" viewBox="-68 0 512 512" width="512pt" xmlns="http://www.w3.org/2000/svg"><path d="m221.867188 51.199219c0-4.710938-3.820313-8.53125-8.53125-8.53125h-85.332032c-4.714844 0-8.535156 3.820312-8.535156 8.53125 0 4.714843 3.820312 8.535156 8.535156 8.535156h85.332032c4.710937 0 8.53125-3.820313 8.53125-8.535156zm0 0"/><path d="m119.46875 460.800781c0 4.710938 3.820312 8.53125 8.535156 8.53125h85.332032c4.710937 0 8.53125-3.820312 8.53125-8.53125 0-4.714843-3.820313-8.535156-8.53125-8.535156h-85.332032c-4.714844 0-8.535156 3.820313-8.535156 8.535156zm0 0"/><path d="m358.402344 230.398438h-19.199219c-6.269531-41.417969-27.558594-79.082032-59.8125-105.8125l-20.828125-104.003907c-2.425781-11.941406-12.902344-20.535156-25.089844-20.582031h-125.609375c-12.1875.046875-22.667969 8.652344-25.085937 20.597656l-20.832032 103.988282c-39.226562 32.375-61.945312 80.578124-61.945312 131.441406 0 50.859375 22.71875 99.0625 61.945312 131.4375l20.832032 103.953125c2.425781 11.941406 12.902344 20.535156 25.085937 20.582031h125.609375c12.191406-.046875 22.667969-8.652344 25.089844-20.597656l20.828125-103.988282c32.253906-26.730468 53.542969-64.394531 59.8125-105.8125h19.199219c9.425781 0 17.066406-7.640624 17.066406-17.066406v-17.070312c0-9.425782-7.640625-17.066406-17.066406-17.066406zm-258.902344-206.429688c.800781-3.988281 4.292969-6.871094 8.363281-6.902344h125.609375c4.074219.007813 7.570313 2.890625 8.355469 6.886719l17.304687 86.382813c-54.269531-33.335938-122.667968-33.335938-176.9375 0zm142.335938 464.0625c-.800782 3.988281-4.289063 6.871094-8.363282 6.902344h-125.609375c-4.070312-.007813-7.566406-2.890625-8.355469-6.886719l-17.304687-86.382813c54.269531 33.335938 122.671875 33.335938 176.9375 0zm-71.167969-78.429688c-84.828125 0-153.597657-68.769531-153.597657-153.601562s68.769532-153.601562 153.597657-153.601562c84.832031 0 153.601562 68.769531 153.601562 153.601562-.097656 84.789062-68.8125 153.5-153.601562 153.601562zm187.734375-145.066406h-17.503906c.148437-2.84375.4375-5.652344.4375-8.535156s-.289063-5.691406-.4375-8.535156h17.503906zm0 0"/><path d="m289.136719 323.59375c24.085937-41.84375 24.085937-93.34375 0-135.1875-.0625-.226562-.140625-.453125-.230469-.671875-.183594-.234375-.378906-.457031-.589844-.667969-11.835937-20.113281-28.601562-36.878906-48.714844-48.714844-.210937-.210937-.433593-.40625-.667968-.589843-.21875-.089844-.441406-.167969-.671875-.230469-41.84375-24.085938-93.34375-24.085938-135.183594 0-.230469.066406-.457031.144531-.675781.230469-.230469.183593-.453125.382812-.664063.589843-20.117187 11.832032-36.882812 28.59375-48.71875 48.707032-.210937.214844-.40625.4375-.589843.675781-.089844.21875-.164063.445313-.230469.671875-24.085938 41.84375-24.085938 93.34375 0 135.1875.066406.226562.140625.453125.230469.671875.253906.394531.539062.765625.855468 1.109375 11.816406 19.921875 28.484375 36.53125 48.453125 48.273438.210938.207031.433594.40625.664063.589843.300781.152344.609375.277344.929687.382813 41.714844 23.882812 92.957031 23.882812 134.671875 0 .320313-.105469.632813-.230469.929688-.382813.234375-.183593.457031-.378906.667968-.589843 19.964844-11.742188 36.632813-28.351563 48.453126-48.273438.316406-.34375.601562-.714844.851562-1.109375.089844-.21875.167969-.445313.230469-.671875zm-51.523438 31.300781-4.089843-7.085937c-1.511719-2.660156-4.335938-4.308594-7.398438-4.3125-3.0625-.007813-5.890625 1.625-7.417969 4.28125-1.523437 2.65625-1.511719 5.925781.039063 8.566406l4.035156 6.988281c-13.640625 6.660157-28.4375 10.632813-43.578125 11.699219v-8.097656c0-4.714844-3.820313-8.535156-8.535156-8.535156-4.710938 0-8.53125 3.820312-8.53125 8.535156v8.097656c-15.144531-1.066406-29.941407-5.039062-43.582031-11.699219l4.039062-6.988281c2.316406-4.078125.910156-9.261719-3.152344-11.609375-4.0625-2.34375-9.257812-.972656-11.628906 3.074219l-4.085938 7.085937c-12.570312-8.539062-23.40625-19.378906-31.941406-31.949219l7.082032-4.089843c2.660156-1.511719 4.308593-4.335938 4.316406-7.398438.007812-3.0625-1.628906-5.894531-4.285156-7.417969-2.652344-1.527343-5.921876-1.511718-8.566407.039063l-6.996093 4.035156c-6.660157-13.640625-10.632813-28.4375-11.699219-43.578125h8.097656c4.714844 0 8.535156-3.824218 8.535156-8.535156s-3.820312-8.535156-8.535156-8.535156h-8.097656c1.066406-15.140625 5.039062-29.9375 11.699219-43.578125l6.996093 4.035156c2.644531 1.550781 5.914063 1.566406 8.566407.039063 2.65625-1.523438 4.292968-4.355469 4.285156-7.417969-.007813-3.0625-1.65625-5.886719-4.316406-7.398438l-7.082032-4.089843c8.535156-12.570313 19.371094-23.410157 31.941406-31.949219l4.085938 7.085937c1.511719 2.660156 4.335938 4.308594 7.398438 4.3125 3.0625.007813 5.894531-1.625 7.417968-4.28125 1.527344-2.65625 1.511719-5.925781-.035156-8.566406l-4.039062-6.988281c13.640624-6.660157 28.4375-10.632813 43.582031-11.699219v8.097656c0 4.714844 3.820312 8.535156 8.53125 8.535156 4.714843 0 8.535156-3.820312 8.535156-8.535156v-8.097656c15.140625 1.066406 29.9375 5.039062 43.578125 11.699219l-4.035156 6.988281c-1.550782 2.640625-1.5625 5.910156-.039063 8.566406 1.527344 2.65625 4.355469 4.289063 7.417969 4.28125 3.0625-.003906 5.886719-1.652344 7.398438-4.3125l4.089843-7.085937c12.566407 8.539062 23.40625 19.378906 31.941407 31.949219l-7.085938 4.089843c-2.660156 1.511719-4.308594 4.335938-4.3125 7.398438-.007812 3.0625 1.625 5.894531 4.28125 7.417969 2.65625 1.527343 5.925781 1.511718 8.566406-.039063l6.996094-4.035156c6.664062 13.640625 10.636719 28.4375 11.699219 43.578125h-8.097657c-4.710937 0-8.53125 3.824218-8.53125 8.535156s3.820313 8.535156 8.53125 8.535156h8.097657c-1.0625 15.140625-5.035157 29.9375-11.699219 43.578125l-6.996094-4.035156c-4.078125-2.320313-9.261718-.914063-11.609375 3.148437-2.34375 4.0625-.96875 9.257813 3.074219 11.628907l7.085938 4.089843c-8.535157 12.570313-19.375 23.410157-31.941407 31.949219zm0 0"/><path d="m179.203125 252.46875v-73.269531c0-4.710938-3.820313-8.53125-8.535156-8.53125-4.710938 0-8.53125 3.820312-8.53125 8.53125v76.800781c0 2.261719.898437 4.433594 2.5 6.03125l59.730469 59.734375c3.351562 3.234375 8.671874 3.1875 11.964843-.101563 3.289063-3.292968 3.335938-8.617187.101563-11.964843zm0 0"/></svg>